<svg id="Group_7" data-name="Group 7" xmlns="http://www.w3.org/2000/svg" xmlns:xlink="http://www.w3.org/1999/xlink" viewBox="0 0 1920 1080">
  <defs>
    <style>
      .cls-1 {
        fill: none;
      }

      .cls-2 {
        fill: #fff;
      }

      .cls-3 {
        clip-path: url(#clip-path);
      }

      .cls-4 {
        fill: #5cc243;
      }
    </style>
    <clipPath id="clip-path">
      <rect class="cls-1" width="1801" height="987"/>
    </clipPath>
  </defs>
  <rect id="Rectangle_1" data-name="Rectangle 1" class="cls-2" width="1920" height="1080"/>
  <g id="Group_6" data-name="Group 6">
    <g id="Repeat_Grid_1" data-name="Repeat Grid 1" class="cls-3" transform="translate(59 52)">
      <g transform="translate(-79 -50)">
        <rect id="Rectangle_2" data-name="Rectangle 2" class="cls-4" width="20" height="20" transform="translate(79 50)"/>
        <rect id="Rectangle_3" data-name="Rectangle 3" class="cls-4" width="20" height="20" rx="10" transform="translate(188 153)"/>
        <rect id="Rectangle_4" data-name="Rectangle 4" class="cls-4" width="20" height="20" rx="10" transform="translate(489 452)"/>
        <rect id="Rectangle_5" data-name="Rectangle 5" class="cls-4" width="20" height="20" transform="translate(351 532)"/>
      </g>
      <g transform="translate(1220 -50)">
        <rect id="Rectangle_2-2" data-name="Rectangle 2" class="cls-4" width="20" height="20" transform="translate(79 50)"/>
        <rect id="Rectangle_3-2" data-name="Rectangle 3" class="cls-4" width="20" height="20" rx="10" transform="translate(188 153)"/>
        <rect id="Rectangle_4-2" data-name="Rectangle 4" class="cls-4" width="20" height="20" rx="10" transform="translate(489 452)"/>
        <rect id="Rectangle_5-2" data-name="Rectangle 5" class="cls-4" width="20" height="20" transform="translate(351 532)"/>
      </g>
      <g transform="translate(-79 690)">
        <rect id="Rectangle_2-3" data-name="Rectangle 2" class="cls-4" width="20" height="20" transform="translate(79 50)"/>
        <rect id="Rectangle_3-3" data-name="Rectangle 3" class="cls-4" width="20" height="20" rx="10" transform="translate(188 153)"/>
        <rect id="Rectangle_4-3" data-name="Rectangle 4" class="cls-4" width="20" height="20" rx="10" transform="translate(489 452)"/>
        <rect id="Rectangle_5-3" data-name="Rectangle 5" class="cls-4" width="20" height="20" transform="translate(351 532)"/>
      </g>
      <g transform="translate(1220 690)">
        <rect id="Rectangle_2-4" data-name="Rectangle 2" class="cls-4" width="20" height="20" transform="translate(79 50)"/>
        <rect id="Rectangle_3-4" data-name="Rectangle 3" class="cls-4" width="20" height="20" rx="10" transform="translate(188 153)"/>
        <rect id="Rectangle_4-4" data-name="Rectangle 4" class="cls-4" width="20" height="20" rx="10" transform="translate(489 452)"/>
        <rect id="Rectangle_5-4" data-name="Rectangle 5" class="cls-4" width="20" height="20" transform="translate(351 532)"/>
      </g>
    </g>
  </g>
</svg>
